 http://s22.postimg.org/i5lbe0q69/priyanka_chopra_134a_copy.jpg
 
http://images.cinebag.com/photos//2013/04/Totey-Ud-Gaye.jpg




 
http://s12.postimg.org/fzowmq53t/53aa6_portable_5bb600851216dcdf9853d9752713496b.gif



Format : AVI
Format/Info : Audio Video Interleave
File size : 16.5 MiB
Duration : 2mn 37s
Overall bit rate : 879 Kbps

Video
ID : 0
Format : MPEG-4 Visual
Format profile : Advanced Simple@L5
Format settings, BVOP : 2
Format settings, QPel : No
Format settings, GMC : No warppoints
Format settings, Matrix : Default (H.263)
Codec ID : XVID
Codec ID/Hint : XviD
Duration : 2mn 37s
Bit rate : 738 Kbps
Width : 720 pixels
Height : 308 pixels
Display aspect ratio : 2.35:1
Frame rate : 25.000 fps
Color space : YUV
Chroma subsampling : 4:2:0
Bit depth : 8 bits
Scan type : Progressive
Compression mode : Lossy
Bits/(Pixel*Frame) : 0.133
Stream size : 13.9 MiB (84%)
Writing library : XviD 64

Audio
ID : 1
Format : MPEG Audio
Format version : Version 1
Format profile : Layer 3
Codec ID : 55
Codec ID/Hint : MP3
Duration : 2mn 37s
Source duration : 2mn 37s
Bit rate mode : Constant
Bit rate : 128 Kbps
Channel(s) : 2 channels
Sampling rate : 44.1 KHz
Compression mode : Lossy
Stream size : 2.41 MiB (15%)
Alignment : Split accross interleaves
Interleave, duration : 26 ms (0.65 video frame)
Writing library : LAMEª÷}¶K«ˆ”ª$ÎTi>Ù
 
http://s12.postimg.org/rdbfxxfmh/screenshots_logo.png

 
http://s22.postimg.org/wfkczi2b5/Totey_Udd_Gye_avi_thumbs_2013_04_
04_19_18_15.jpg